<?xml version="1.0" encoding="utf-8"?>
<!-- Generator: Adobe Illustrator 26.5.0, SVG Export Plug-In . SVG Version: 6.00 Build 0)  -->
<svg version="1.0" id="katman_1" xmlns="http://www.w3.org/2000/svg" xmlns:xlink="http://www.w3.org/1999/xlink" x="0px" y="0px"
	 viewBox="0 0 1190.55 841.89" style="enable-background:new 0 0 1190.55 841.89;" xml:space="preserve">
<style type="text/css">
	.st0{fill:#028193;}
	.st1{opacity:0.4;fill:#010202;enable-background:new    ;}
	.st2{fill:#FFFFFF;}
	.st3{fill:url(#SVGID_1_);}
	.st4{fill-rule:evenodd;clip-rule:evenodd;fill:#FFFFFF;}
	.st5{fill:#008B9A;}
	.st6{fill:#00A5B7;}
	.st7{opacity:0.3;fill:#010202;enable-background:new    ;}
	.st8{fill-rule:evenodd;clip-rule:evenodd;fill:#003037;}
</style>
<path class="st0" d="M438.01,479.63h13.16v36.94h0.33c0.66-0.88,1.5-1.75,2.52-2.63c1.13-1.03,2.38-1.91,3.73-2.63
	c1.6-0.86,3.29-1.52,5.04-1.97c1.9-0.52,4.09-0.78,6.57-0.78c3.72,0,7.16,0.74,10.31,2.19c3.14,1.39,5.81,3.32,8,5.81
	c2.27,2.48,4.02,5.41,5.26,8.77c1.26,3.48,1.89,7.15,1.87,10.85c0,3.88-0.58,7.49-1.75,10.85c-1.17,3.36-2.89,6.29-5.15,8.77
	c-2.31,2.51-5.11,4.52-8.22,5.91c-3.22,1.39-6.83,2.09-10.86,2.09c-3.59,0.03-7.14-0.72-10.41-2.19c-3.23-1.48-5.91-3.93-7.67-7.01
	h-0.22v7.89h-12.49V479.63z M481.63,536.2c0-2.04-0.36-4.02-1.1-5.92c-0.65-1.88-1.69-3.6-3.07-5.04c-1.31-1.46-2.92-2.63-4.82-3.51
	c-1.9-0.87-4.06-1.31-6.47-1.31c-4.31-0.08-8.45,1.67-11.4,4.82c-1.31,1.46-2.34,3.15-3.07,5.04c-0.66,1.9-0.99,3.88-0.99,5.92
	c0,2.05,0.33,4.02,0.99,5.92c0.73,1.9,1.75,3.59,3.07,5.04c2.95,3.15,7.09,4.9,11.4,4.82c2.41,0,4.56-0.43,6.47-1.31
	c1.9-0.87,3.51-2.04,4.82-3.51c1.37-1.44,2.42-3.16,3.07-5.04C481.27,540.21,481.63,538.24,481.63,536.2L481.63,536.2z
	 M542.13,555.28h-0.33c-1.9,2.99-4.32,5.19-7.24,6.57c-2.92,1.31-6.13,1.98-9.64,1.98c-2.41,0-4.81-0.33-7.13-0.99
	c-2.27-0.66-4.32-1.64-6.14-2.96c-1.75-1.32-3.18-2.96-4.27-4.94c-1.13-2.12-1.7-4.5-1.65-6.9c0-2.85,0.51-5.26,1.54-7.24
	c1.02-2.04,2.37-3.72,4.05-5.04c1.75-1.39,3.76-2.48,6.03-3.28c2.28-0.81,4.63-1.39,7.01-1.75c2.46-0.44,4.95-0.69,7.45-0.77
	c2.48-0.14,4.82-0.22,7.01-0.22h3.29v-1.43c0-3.28-1.13-5.73-3.4-7.34c-2.27-1.68-5.16-2.52-8.66-2.52c-2.78,0-5.37,0.51-7.78,1.54
	c-2.32,0.89-4.44,2.23-6.25,3.94l-6.91-6.9c2.83-2.94,6.33-5.16,10.2-6.47c3.94-1.31,8-1.97,12.16-1.97c3.73,0,6.87,0.43,9.43,1.31
	c2.56,0.8,4.68,1.86,6.36,3.18c1.68,1.31,2.96,2.85,3.84,4.6c0.95,1.69,1.6,3.4,1.97,5.16c0.44,1.75,0.7,3.47,0.77,5.16
	c0.07,1.6,0.11,3.03,0.11,4.27v30.26h-11.84V555.28L542.13,555.28z M541.36,538.93h-2.73c-1.83,0-3.88,0.08-6.14,0.22
	c-2.19,0.13-4.35,0.5-6.46,1.1c-1.97,0.51-3.66,1.31-5.04,2.41c-1.39,1.02-2.08,2.48-2.08,4.38c0,1.25,0.26,2.3,0.77,3.18
	c0.58,0.81,1.31,1.5,2.19,2.09c0.88,0.58,1.87,1.02,2.96,1.31c1.1,0.22,2.19,0.33,3.28,0.33c4.53,0,7.86-1.06,9.98-3.18
	c2.19-2.19,3.28-5.16,3.28-8.88L541.36,538.93L541.36,538.93z M566.59,550.34l28.17-29.71v-0.22H567.9v-10.52h42.76v11.95
	l-28.51,30.15h29.82v10.52h-45.38L566.59,550.34L566.59,550.34z M658.27,555.28h-0.33c-1.9,2.99-4.31,5.19-7.23,6.57
	c-2.92,1.31-6.14,1.98-9.65,1.98c-2.41,0-4.8-0.33-7.12-0.99c-2.27-0.66-4.31-1.64-6.14-2.96c-1.75-1.32-3.18-2.96-4.27-4.94
	c-1.13-2.12-1.7-4.5-1.64-6.9c0-2.85,0.51-5.26,1.53-7.24c1.02-2.04,2.37-3.72,4.05-5.04c1.75-1.39,3.76-2.48,6.03-3.28
	c2.28-0.81,4.63-1.39,7.01-1.75c2.46-0.44,4.95-0.69,7.45-0.77c2.49-0.14,4.83-0.22,7.02-0.22h3.28v-1.43c0-3.28-1.13-5.73-3.4-7.34
	c-2.27-1.68-5.16-2.52-8.66-2.52c-2.78,0-5.37,0.51-7.78,1.54c-2.32,0.89-4.44,2.23-6.25,3.94l-6.9-6.9
	c2.83-2.94,6.33-5.16,10.19-6.47c3.94-1.31,8-1.97,12.16-1.97c3.73,0,6.87,0.43,9.43,1.31c2.55,0.8,4.68,1.86,6.36,3.18
	c1.67,1.31,2.96,2.85,3.84,4.6c0.95,1.69,1.6,3.4,1.97,5.16c0.44,1.75,0.7,3.47,0.77,5.16c0.07,1.6,0.11,3.03,0.11,4.27v30.26
	h-11.84V555.28L658.27,555.28z M657.5,538.93h-2.74c-1.83,0-3.88,0.08-6.13,0.22c-2.19,0.13-4.36,0.5-6.47,1.1
	c-1.97,0.51-3.65,1.31-5.04,2.41c-1.39,1.02-2.08,2.48-2.08,4.38c0,1.25,0.26,2.3,0.77,3.18c0.58,0.81,1.31,1.5,2.19,2.09
	c0.87,0.58,1.86,1.02,2.96,1.31c1.1,0.22,2.19,0.33,3.28,0.33c4.53,0,7.86-1.06,9.98-3.18c2.19-2.19,3.28-5.16,3.28-8.88
	L657.5,538.93L657.5,538.93z M719.34,555.28h-0.33c-1.9,2.99-4.31,5.19-7.24,6.57c-2.92,1.31-6.13,1.98-9.64,1.98
	c-2.41,0-4.81-0.33-7.13-0.99c-2.27-0.66-4.31-1.64-6.14-2.96c-1.75-1.32-3.18-2.96-4.27-4.94c-1.13-2.12-1.7-4.5-1.64-6.9
	c0-2.85,0.51-5.26,1.53-7.24c1.02-2.04,2.37-3.72,4.05-5.04c1.75-1.39,3.76-2.48,6.03-3.28c2.27-0.81,4.6-1.39,7.01-1.75
	c2.46-0.44,4.95-0.69,7.45-0.77c2.34-0.14,4.67-0.22,7.01-0.22h3.29v-1.43c0-3.28-1.13-5.73-3.4-7.34
	c-2.27-1.68-5.16-2.52-8.66-2.52c-2.77,0-5.37,0.51-7.78,1.54c-2.32,0.89-4.44,2.23-6.25,3.94l-6.91-6.9
	c2.83-2.94,6.33-5.16,10.2-6.47c3.94-1.31,8-1.97,12.16-1.97c3.73,0,6.87,0.43,9.43,1.31c2.55,0.8,4.68,1.86,6.36,3.18
	c1.67,1.31,2.96,2.85,3.84,4.6c0.95,1.69,1.6,3.4,1.97,5.16c0.44,1.75,0.7,3.47,0.77,5.16c0.07,1.6,0.11,3.03,0.11,4.27v30.26
	h-11.84V555.28L719.34,555.28z M718.57,538.93h-2.74c-1.83,0-3.88,0.08-6.14,0.22c-2.19,0.13-4.35,0.5-6.46,1.1
	c-1.97,0.51-3.66,1.31-5.04,2.41c-1.39,1.02-2.08,2.48-2.08,4.38c0,1.25,0.26,2.3,0.77,3.18c0.58,0.81,1.31,1.5,2.19,2.09
	c0.87,0.58,1.86,1.02,2.96,1.31c1.1,0.22,2.19,0.33,3.28,0.33c4.53,0,7.86-1.06,9.98-3.18c2.19-2.19,3.28-5.16,3.28-8.88
	L718.57,538.93L718.57,538.93z M747.53,509.89h13.16v8.33h0.22c1.46-3.07,3.55-5.44,6.25-7.13c2.8-1.71,6.03-2.58,9.31-2.52
	c0.81,0,1.58,0.07,2.3,0.22c0.81,0.14,1.61,0.33,2.42,0.55v12.72c-1.08-0.29-2.18-0.51-3.28-0.66c-1.01-0.22-2.04-0.33-3.07-0.33
	c-3.07,0-5.56,0.58-7.45,1.75c-1.68,0.96-3.13,2.27-4.27,3.84c-0.9,1.34-1.57,2.83-1.98,4.39c-0.3,1.46-0.44,2.56-0.44,3.28v28.18
	h-13.16L747.53,509.89L747.53,509.89z M170.09,348c0-5.5,4.46-9.96,9.96-9.96h186.2c5.5,0,9.96,4.46,9.96,9.96v37.02H170.09
	C170.09,385.03,170.09,348,170.09,348z"/>
<path class="st1" d="M339.03,388.13c0-28.48-7.16-55.8-19.89-75.93c-12.74-20.14-30.01-29.87-48.01-29.87
	c-18.02,0-35.29,9.73-48.02,29.87c-12.74,20.14-19.89,47.45-19.89,75.93h14.01c0-22.61,5.67-44.29,15.78-60.27
	c10.11-15.98,23.82-28.16,38.11-28.16c14.3,0,28.01,12.18,38.11,28.16c10.11,15.99,15.79,37.67,15.79,60.27
	C325.03,388.13,339.03,388.13,339.03,388.13z"/>
<path class="st2" d="M339.03,388.13c0-30.99-7.16-60.71-19.89-82.63C306.4,283.58,289.13,276,271.13,276
	c-18.02,0-35.29,7.57-48.02,29.49c-12.74,21.92-19.89,51.64-19.89,82.63h13.52c0-24.83,5.73-48.63,15.93-66.18
	c10.2-17.55,24.04-30.15,38.46-30.15c14.42,0,28.26,12.6,38.46,30.15s15.93,41.36,15.93,66.18H339.03z"/>
<linearGradient id="SVGID_1_" gradientUnits="userSpaceOnUse" x1="272.4818" y1="461.5173" x2="272.4818" y2="277.1143" gradientTransform="matrix(1 0 0 -1 0 842.1102)">
	<stop  offset="0" style="stopColor:#009CAC"/>
	<stop  offset="1" style="stopColor:#028EA2"/>
</linearGradient>
<path class="st3" d="M159,380.59h226.96V535.1c0,16.51-13.39,29.9-29.9,29.9l0,0H188.9c-16.51,0-29.9-13.39-29.9-29.9V380.59z"/>
<path class="st4" d="M341.76,420.7c-0.76,1.47-44.53,65.16-69.82,94.8c-5.99,7.01-16.03,7.19-22.01-0.36
	c-13.83-17.46-25-32.62-37.98-53.69c-1.79-2.89-4-7.06-0.79-10.71c0,0,3.53-4.07,11.19,1.52c9.73,7.09,20.08,14.02,29.63,20.6
	c5.46,3.76,8.95,4.09,13.99,0.05c21.21-16.96,68.77-53.54,71.48-55.24c4.77-3,5.38,0.75,4.24,3.02L341.76,420.7L341.76,420.7z"/>
<path class="st5" d="M190.92,352.67L159,380.59h31.92V352.67z M385.74,380.59l-32.14-28.31v28.31H385.74z"/>
<path class="st6" d="M169.86,371.28v-23.43c0-2.75,2.23-4.98,4.99-4.98c0.99,0,1.96,0.29,2.78,0.85l13.29,8.96
	C190.92,352.67,169.86,371.28,169.86,371.28z M376.2,347.41v24.76l-22.6-19.73l15-9.27c2.34-1.45,5.41-0.72,6.86,1.62
	C375.95,345.58,376.21,346.49,376.2,347.41L376.2,347.41z"/>
<path class="st7" d="M247.43,361.28c0,4.36-3.53,7.89-7.89,7.89c-4.36,0-7.89-3.53-7.89-7.89l0,0c0-4.36,3.53-7.89,7.89-7.89
	C243.9,353.39,247.43,356.92,247.43,361.28z M310.6,361.28c0,4.36-3.53,7.9-7.89,7.9c-4.36,0-7.9-3.53-7.9-7.89c0,0,0-0.01,0-0.01
	c0-4.36,3.54-7.89,7.9-7.89C307.07,353.4,310.6,356.93,310.6,361.28z"/>
<path class="st8" d="M458.66,368.76c0-7.13,0-13.3,6.75-13.3c6.75,0,6.75,7.9,6.75,13.68c0,2.89,0.96,3.86,3.85,3.86h15.22
	c2.89,0,3.85-1.92,3.85-4.81c0-20.82-10.01-34.69-30.63-34.69c-19.28,0-28.91,12.91-28.91,30.25c0,15.23,1.94,22.36,20.44,44.13
	c10.21,11.95,15.99,19.86,15.99,27.18c0,7.13,0,13.29-6.75,13.29s-6.75-7.9-6.75-13.69c0-2.89-0.97-3.86-3.85-3.86h-15.23
	c-2.89,0-3.86,1.93-3.86,4.82c0,20.82,10.02,34.69,30.65,34.69c19.27,0,28.9-12.91,28.9-30.26c0-15.22-1.73-22.36-20.23-44.14
	C464.64,383.99,458.66,376.09,458.66,368.76z M544.22,469.37h15.42c1.92,0,3.86,0,3.86-3.86v-127.2c0-2.89-0.97-3.86-3.86-3.86
	h-15.43c-2.89,0-3.85,0.97-3.85,3.86v45.1c0,3.86,0,3.86-3.86,3.86h-5.78c-3.86,0-3.86,0-3.86-3.86v-45.1
	c0-2.89-0.97-3.86-3.86-3.86H507.6c-2.88,0-3.86,0.97-3.86,3.86V465.5c0,3.86,1.94,3.86,3.86,3.86h15.42c1.93,0,3.86,0,3.86-3.86
	v-52.41c0-3.86,0-3.86,3.86-3.86h5.78c3.86,0,3.86,0,3.86,3.86v52.41C540.36,469.36,542.29,469.36,544.22,469.37L544.22,469.37z
	 M634.79,431.78v-59.74c0-28.91-10.59-38.54-29.87-38.54c-19.27,0-29.86,9.44-29.86,38.54v59.74c0,29.1,10.59,38.55,29.86,38.55
	C624.2,470.34,634.79,460.68,634.79,431.78z M611.67,371.47v61.09c0,9.64,0,15.8-6.75,15.8c-6.75,0-6.75-6.16-6.75-15.8v-61.09
	c0-9.83,0-16,6.75-16C611.67,355.47,611.67,361.64,611.67,371.47z M706.09,386.12v-13.11c0-28.91-13.48-38.54-32.75-38.54h-23.13
	c-2.89,0-3.86,0.97-3.86,3.86v127.19c0,2.89,0.77,3.86,3.86,3.86h15.42c2.69,0,3.86-0.96,3.86-3.86v-37.19c0-3.86,0-3.86,3.86-3.86
	C692.6,424.46,706.09,414.83,706.09,386.12z M669.48,359.33c0-3.86,0-3.86,3.86-3.86c9.63,0,9.63,9.83,9.63,19.66v8.67
	c0,9.83,0,19.66-9.63,19.66c-3.86,0-3.86,0-3.86-3.47V359.33L669.48,359.33z M740.77,371.08c0-9.64,0-15.8,6.75-15.8
	c6.75,0,6.75,6.17,6.75,15.8v5.78c0,2.89,0.95,3.85,3.86,3.85h15.41c2.89,0,3.86-0.95,3.86-3.86v-4.99
	c0-28.92-10.6-38.55-29.87-38.55c-19.27,0-29.87,9.44-29.87,38.55v59.92c0,29.1,10.6,38.55,29.87,38.55
	c19.27,0,29.86-9.65,29.86-38.55v-4.81c0-2.89-0.95-3.86-3.85-3.86h-15.41c-2.9,0-3.86,0.97-3.86,3.86v5.59c0,9.64,0,15.8-6.75,15.8
	c-6.75,0-6.75-6.16-6.75-15.8C740.77,432.56,740.77,371.08,740.77,371.08z M792.81,469.36h40.66c2.89,0,3.86-0.96,3.86-3.86v-14.26
	c0-2.89-0.97-3.85-3.86-3.85h-17.35c-4.05,0-4.05,0-4.05-4.05V338.32c0-2.89-0.96-3.86-3.86-3.86h-15.42
	c-2.89,0-3.85,0.97-3.85,3.86V465.5C788.96,468.39,789.92,469.36,792.81,469.36z M878.76,338.31v94.24c0,9.64,0,15.8-6.75,15.8
	c-6.75,0-6.75-6.16-6.75-15.8v-94.24c0-2.89-0.96-3.86-3.86-3.86h-15.42c-2.89,0-3.86,0.97-3.86,3.86v93.46
	c0,29.1,10.61,38.55,29.88,38.55c19.27,0,29.86-9.65,29.86-38.55v-93.46c0-2.89-0.96-3.86-3.86-3.86h-15.41
	C879.73,334.46,878.76,335.42,878.76,338.31z M917.3,469.36h41.62c2.89,0,3.86-0.96,3.86-3.86v-14.26c0-2.89-0.97-3.85-3.86-3.85
	h-18.5c-3.86,0-3.86,0-3.86-3.86v-30.45c0-3.86,0-3.86,3.86-3.86h18.5c2.89,0,3.86-0.97,3.86-3.86v-14.27
	c0-2.89-0.97-3.85-3.86-3.85h-18.5c-3.86,0-3.86,0-3.86-3.86v-23.13c0-3.85,0-3.85,3.86-3.85h18.5c2.89,0,3.86-0.97,3.86-3.86
	v-14.25c0-2.89-0.97-3.86-3.86-3.86H917.3c-2.9,0-3.86,0.97-3.86,3.86V465.5C913.45,469.36,915.37,469.36,917.3,469.36z
	 M994.57,368.76c0-7.13,0-13.3,6.75-13.3c6.74,0,6.74,7.9,6.74,13.68c0,2.89,0.97,3.86,3.86,3.86h15.23c2.89,0,3.86-1.92,3.86-4.81
	c0-20.82-10.02-34.69-30.65-34.69c-19.27,0-28.91,12.91-28.91,30.25c0,15.23,1.92,22.36,20.43,44.13c10.21,11.95,16,19.86,16,27.18
	c0,7.13,0,13.29-6.75,13.29c-6.74,0-6.74-7.9-6.74-13.69c0-2.89-0.97-3.86-3.86-3.86H975.3c-2.9,0-3.86,1.93-3.86,4.82
	c0,20.82,10.02,34.69,30.64,34.69c19.27,0,28.91-12.91,28.91-30.26c0-15.22-1.73-22.36-20.24-44.14
	C1000.54,383.99,994.57,376.09,994.57,368.76L994.57,368.76z"/>
</svg>
